# Tiled2Unity generated file. Do not modify by hand.
# Wavefront file for 'Test-1_mesh_0003.obj'

# Vertices (Count = 436)
v -576 -48 0
v -624 -48 0
v -624 0 0
v -576 0 0
v -96 -96 0
v -144 -96 0
v -144 -48 0
v -96 -48 0
v -144 -96 0
v -192 -96 0
v -192 -48 0
v -144 -48 0
v -192 -96 0
v -240 -96 0
v -240 -48 0
v -192 -48 0
v -240 -96 0
v -288 -96 0
v -288 -48 0
v -240 -48 0
v -288 -96 0
v -336 -96 0
v -336 -48 0
v -288 -48 0
v -528 -96 0
v -576 -96 0
v -576 -48 0
v -528 -48 0
v -672 -96 0
v -720 -96 0
v -720 -48 0
v -672 -48 0
v -720 -96 0
v -768 -96 0
v -768 -48 0
v -720 -48 0
v -768 -96 0
v -816 -96 0
v -816 -48 0
v -768 -48 0
v 0 -144 0
v -48 -144 0
v -48 -96 0
v 0 -96 0
v -48 -144 0
v -96 -144 0
v -96 -96 0
v -48 -96 0
v -96 -144 0
v -144 -144 0
v -144 -96 0
v -96 -96 0
v -144 -144 0
v -192 -144 0
v -192 -96 0
v -144 -96 0
v -192 -144 0
v -240 -144 0
v -240 -96 0
v -192 -96 0
v -240 -144 0
v -288 -144 0
v -288 -96 0
v -240 -96 0
v -624 -144 0
v -672 -144 0
v -672 -96 0
v -624 -96 0
v -672 -144 0
v -720 -144 0
v -720 -96 0
v -672 -96 0
v -720 -144 0
v -768 -144 0
v -768 -96 0
v -720 -96 0
v -768 -144 0
v -816 -144 0
v -816 -96 0
v -768 -96 0
v 0 -192 0
v -48 -192 0
v -48 -144 0
v 0 -144 0
v -48 -192 0
v -96 -192 0
v -96 -144 0
v -48 -144 0
v -96 -192 0
v -144 -192 0
v -144 -144 0
v -96 -144 0
v -144 -192 0
v -192 -192 0
v -192 -144 0
v -144 -144 0
v -192 -192 0
v -240 -192 0
v -240 -144 0
v -192 -144 0
v -240 -192 0
v -288 -192 0
v -288 -144 0
v -240 -144 0
v -672 -192 0
v -720 -192 0
v -720 -144 0
v -672 -144 0
v -720 -192 0
v -768 -192 0
v -768 -144 0
v -720 -144 0
v -768 -192 0
v -816 -192 0
v -816 -144 0
v -768 -144 0
v 0 -240 0
v -48 -240 0
v -48 -192 0
v 0 -192 0
v -48 -240 0
v -96 -240 0
v -96 -192 0
v -48 -192 0
v -96 -240 0
v -144 -240 0
v -144 -192 0
v -96 -192 0
v -144 -240 0
v -192 -240 0
v -192 -192 0
v -144 -192 0
v -192 -240 0
v -240 -240 0
v -240 -192 0
v -192 -192 0
v -240 -240 0
v -288 -240 0
v -288 -192 0
v -240 -192 0
v -336 -240 0
v -384 -240 0
v -384 -192 0
v -336 -192 0
v -576 -240 0
v -624 -240 0
v -624 -192 0
v -576 -192 0
v -624 -240 0
v -672 -240 0
v -672 -192 0
v -624 -192 0
v -672 -240 0
v -720 -240 0
v -720 -192 0
v -672 -192 0
v -720 -240 0
v -768 -240 0
v -768 -192 0
v -720 -192 0
v -768 -240 0
v -816 -240 0
v -816 -192 0
v -768 -192 0
v 0 -288 0
v -48 -288 0
v -48 -240 0
v 0 -240 0
v -48 -288 0
v -96 -288 0
v -96 -240 0
v -48 -240 0
v -96 -288 0
v -144 -288 0
v -144 -240 0
v -96 -240 0
v -192 -288 0
v -240 -288 0
v -240 -240 0
v -192 -240 0
v -240 -288 0
v -288 -288 0
v -288 -240 0
v -240 -240 0
v -288 -288 0
v -336 -288 0
v -336 -240 0
v -288 -240 0
v -576 -288 0
v -624 -288 0
v -624 -240 0
v -576 -240 0
v -624 -288 0
v -672 -288 0
v -672 -240 0
v -624 -240 0
v -672 -288 0
v -720 -288 0
v -720 -240 0
v -672 -240 0
v -192 -336 0
v -240 -336 0
v -240 -288 0
v -192 -288 0
v -240 -336 0
v -288 -336 0
v -288 -288 0
v -240 -288 0
v -288 -336 0
v -336 -336 0
v -336 -288 0
v -288 -288 0
v -528 -336 0
v -576 -336 0
v -576 -288 0
v -528 -288 0
v -576 -336 0
v -624 -336 0
v -624 -288 0
v -576 -288 0
v -624 -336 0
v -672 -336 0
v -672 -288 0
v -624 -288 0
v -672 -336 0
v -720 -336 0
v -720 -288 0
v -672 -288 0
v -144 -384 0
v -192 -384 0
v -192 -336 0
v -144 -336 0
v -192 -384 0
v -240 -384 0
v -240 -336 0
v -192 -336 0
v -240 -384 0
v -288 -384 0
v -288 -336 0
v -240 -336 0
v -288 -384 0
v -336 -384 0
v -336 -336 0
v -288 -336 0
v -576 -384 0
v -624 -384 0
v -624 -336 0
v -576 -336 0
v -624 -384 0
v -672 -384 0
v -672 -336 0
v -624 -336 0
v -672 -384 0
v -720 -384 0
v -720 -336 0
v -672 -336 0
v -720 -384 0
v -768 -384 0
v -768 -336 0
v -720 -336 0
v -48 -432 0
v -96 -432 0
v -96 -384 0
v -48 -384 0
v -96 -432 0
v -144 -432 0
v -144 -384 0
v -96 -384 0
v -144 -432 0
v -192 -432 0
v -192 -384 0
v -144 -384 0
v -192 -432 0
v -240 -432 0
v -240 -384 0
v -192 -384 0
v -240 -432 0
v -288 -432 0
v -288 -384 0
v -240 -384 0
v -288 -432 0
v -336 -432 0
v -336 -384 0
v -288 -384 0
v -480 -432 0
v -528 -432 0
v -528 -384 0
v -480 -384 0
v -528 -432 0
v -576 -432 0
v -576 -384 0
v -528 -384 0
v -576 -432 0
v -624 -432 0
v -624 -384 0
v -576 -384 0
v -624 -432 0
v -672 -432 0
v -672 -384 0
v -624 -384 0
v -720 -432 0
v -768 -432 0
v -768 -384 0
v -720 -384 0
v -48 -480 0
v -96 -480 0
v -96 -432 0
v -48 -432 0
v -96 -480 0
v -144 -480 0
v -144 -432 0
v -96 -432 0
v -144 -480 0
v -192 -480 0
v -192 -432 0
v -144 -432 0
v -384 -480 0
v -432 -480 0
v -432 -432 0
v -384 -432 0
v -480 -480 0
v -528 -480 0
v -528 -432 0
v -480 -432 0
v -528 -480 0
v -576 -480 0
v -576 -432 0
v -528 -432 0
v -576 -480 0
v -624 -480 0
v -624 -432 0
v -576 -432 0
v -672 -480 0
v -720 -480 0
v -720 -432 0
v -672 -432 0
v -720 -480 0
v -768 -480 0
v -768 -432 0
v -720 -432 0
v -768 -480 0
v -816 -480 0
v -816 -432 0
v -768 -432 0
v -48 -528 0
v -96 -528 0
v -96 -480 0
v -48 -480 0
v -96 -528 0
v -144 -528 0
v -144 -480 0
v -96 -480 0
v -144 -528 0
v -192 -528 0
v -192 -480 0
v -144 -480 0
v -192 -528 0
v -240 -528 0
v -240 -480 0
v -192 -480 0
v -480 -528 0
v -528 -528 0
v -528 -480 0
v -480 -480 0
v -528 -528 0
v -576 -528 0
v -576 -480 0
v -528 -480 0
v -576 -528 0
v -624 -528 0
v -624 -480 0
v -576 -480 0
v -672 -528 0
v -720 -528 0
v -720 -480 0
v -672 -480 0
v -720 -528 0
v -768 -528 0
v -768 -480 0
v -720 -480 0
v -768 -528 0
v -816 -528 0
v -816 -480 0
v -768 -480 0
v -48 -576 0
v -96 -576 0
v -96 -528 0
v -48 -528 0
v -96 -576 0
v -144 -576 0
v -144 -528 0
v -96 -528 0
v -144 -576 0
v -192 -576 0
v -192 -528 0
v -144 -528 0
v -480 -576 0
v -528 -576 0
v -528 -528 0
v -480 -528 0
v -528 -576 0
v -576 -576 0
v -576 -528 0
v -528 -528 0
v -576 -576 0
v -624 -576 0
v -624 -528 0
v -576 -528 0
v -624 -576 0
v -672 -576 0
v -672 -528 0
v -624 -528 0
v -672 -576 0
v -720 -576 0
v -720 -528 0
v -672 -528 0
v -720 -576 0
v -768 -576 0
v -768 -528 0
v -720 -528 0
v -768 -576 0
v -816 -576 0
v -816 -528 0
v -768 -528 0
v -672 -624 0
v -720 -624 0
v -720 -576 0
v -672 -576 0
v -720 -624 0
v -768 -624 0
v -768 -576 0
v -720 -576 0
v -768 -624 0
v -816 -624 0
v -816 -576 0
v -768 -576 0

# Texture cooridinates (Count = 51)
vt 0.4375 0.625
vt 0.5 0.625
vt 0.5 0.6875
vt 0.4375 0.6875
vt 0.4375 0.5
vt 0.5 0.5
vt 0.5 0.5625
vt 0.4375 0.5625
vt 0 0.6875
vt 0.0625 0.6875
vt 0.0625 0.75
vt 0 0.75
vt 0.125 0.6875
vt 0.125 0.75
vt 0.1875 0.6875
vt 0.1875 0.75
vt 0.375 0.5625
vt 0.375 0.625
vt 0.375 0.6875
vt 0.25 0.6875
vt 0.25 0.75
vt 0.3125 0.6875
vt 0.3125 0.75
vt 0.375 0.75
vt 0 0.625
vt 0.0625 0.625
vt 0.125 0.625
vt 0.1875 0.625
vt 0.25 0.625
vt 0.3125 0.625
vt 0 0.5625
vt 0.0625 0.5625
vt 0.125 0.5625
vt 0.1875 0.5625
vt 0.25 0.5625
vt 0.3125 0.5625
vt 0 0.5
vt 0.0625 0.5
vt 0.125 0.5
vt 0.1875 0.5
vt 0.5 0.875
vt 0.5625 0.875
vt 0.5625 0.9375
vt 0.5 0.9375
vt 0.25 0.5
vt 0.3125 0.5
vt 0.375 0.5
vt 0.0625 0
vt 0.125 0
vt 0.125 0.0625
vt 0.0625 0.0625

# Normal
vn 0 0 -1

# Mesh description
g Test-1_mesh_0003

# Faces
f 1/1/1 2/2/1 3/3/1 4/4/1
f 5/5/1 6/6/1 7/7/1 8/8/1
f 9/9/1 10/10/1 11/11/1 12/12/1
f 13/10/1 14/13/1 15/14/1 16/11/1
f 17/13/1 18/15/1 19/16/1 20/14/1
f 21/17/1 22/8/1 23/1/1 24/18/1
f 25/18/1 26/1/1 27/4/1 28/19/1
f 29/15/1 30/20/1 31/21/1 32/16/1
f 33/20/1 34/22/1 35/23/1 36/21/1
f 37/22/1 38/19/1 39/24/1 40/23/1
f 41/9/1 42/10/1 43/11/1 44/12/1
f 45/10/1 46/13/1 47/14/1 48/11/1
f 49/13/1 50/15/1 51/16/1 52/14/1
f 53/25/1 54/26/1 55/10/1 56/9/1
f 57/26/1 58/27/1 59/13/1 60/10/1
f 61/27/1 62/28/1 63/15/1 64/13/1
f 65/18/1 66/1/1 67/4/1 68/19/1
f 69/28/1 70/29/1 71/20/1 72/15/1
f 73/29/1 74/30/1 75/22/1 76/20/1
f 77/30/1 78/18/1 79/19/1 80/22/1
f 81/25/1 82/26/1 83/10/1 84/9/1
f 85/26/1 86/27/1 87/13/1 88/10/1
f 89/27/1 90/28/1 91/15/1 92/13/1
f 93/31/1 94/32/1 95/26/1 96/25/1
f 97/32/1 98/33/1 99/27/1 100/26/1
f 101/33/1 102/34/1 103/28/1 104/27/1
f 105/34/1 106/35/1 107/29/1 108/28/1
f 109/35/1 110/36/1 111/30/1 112/29/1
f 113/36/1 114/17/1 115/18/1 116/30/1
f 117/31/1 118/32/1 119/26/1 120/25/1
f 121/32/1 122/33/1 123/27/1 124/26/1
f 125/33/1 126/34/1 127/28/1 128/27/1
f 129/37/1 130/38/1 131/32/1 132/31/1
f 133/38/1 134/39/1 135/33/1 136/32/1
f 137/39/1 138/40/1 139/34/1 140/33/1
f 141/41/1 142/42/1 143/43/1 144/44/1
f 145/15/1 146/20/1 147/21/1 148/16/1
f 149/20/1 150/22/1 151/23/1 152/21/1
f 153/22/1 154/19/1 155/24/1 156/23/1
f 157/45/1 158/46/1 159/36/1 160/35/1
f 161/46/1 162/47/1 163/17/1 164/36/1
f 165/37/1 166/38/1 167/32/1 168/31/1
f 169/38/1 170/39/1 171/33/1 172/32/1
f 173/39/1 174/40/1 175/34/1 176/33/1
f 177/9/1 178/10/1 179/11/1 180/12/1
f 181/10/1 182/13/1 183/14/1 184/11/1
f 185/13/1 186/15/1 187/16/1 188/14/1
f 189/28/1 190/29/1 191/20/1 192/15/1
f 193/29/1 194/30/1 195/22/1 196/20/1
f 197/30/1 198/18/1 199/19/1 200/22/1
f 201/25/1 202/26/1 203/10/1 204/9/1
f 205/26/1 206/27/1 207/13/1 208/10/1
f 209/27/1 210/28/1 211/15/1 212/13/1
f 213/1/1 214/2/1 215/3/1 216/4/1
f 217/34/1 218/35/1 219/29/1 220/28/1
f 221/35/1 222/36/1 223/30/1 224/29/1
f 225/36/1 226/17/1 227/18/1 228/30/1
f 229/5/1 230/6/1 231/7/1 232/8/1
f 233/31/1 234/32/1 235/26/1 236/25/1
f 237/32/1 238/33/1 239/27/1 240/26/1
f 241/33/1 242/34/1 243/28/1 244/27/1
f 245/40/1 246/45/1 247/35/1 248/34/1
f 249/45/1 250/46/1 251/36/1 252/35/1
f 253/46/1 254/47/1 255/17/1 256/36/1
f 257/17/1 258/8/1 259/1/1 260/18/1
f 261/9/1 262/10/1 263/11/1 264/12/1
f 265/10/1 266/13/1 267/14/1 268/11/1
f 269/13/1 270/15/1 271/16/1 272/14/1
f 273/37/1 274/38/1 275/32/1 276/31/1
f 277/38/1 278/39/1 279/33/1 280/32/1
f 281/39/1 282/40/1 283/34/1 284/33/1
f 285/9/1 286/10/1 287/11/1 288/12/1
f 289/10/1 290/13/1 291/14/1 292/11/1
f 293/13/1 294/15/1 295/16/1 296/14/1
f 297/5/1 298/6/1 299/7/1 300/8/1
f 301/17/1 302/8/1 303/1/1 304/18/1
f 305/25/1 306/26/1 307/10/1 308/9/1
f 309/26/1 310/27/1 311/13/1 312/10/1
f 313/27/1 314/28/1 315/15/1 316/13/1
f 317/48/1 318/49/1 319/50/1 320/51/1
f 321/25/1 322/26/1 323/10/1 324/9/1
f 325/26/1 326/27/1 327/13/1 328/10/1
f 329/27/1 330/28/1 331/15/1 332/13/1
f 333/9/1 334/10/1 335/11/1 336/12/1
f 337/10/1 338/13/1 339/14/1 340/11/1
f 341/13/1 342/15/1 343/16/1 344/14/1
f 345/31/1 346/32/1 347/26/1 348/25/1
f 349/32/1 350/33/1 351/27/1 352/26/1
f 353/33/1 354/34/1 355/28/1 356/27/1
f 357/17/1 358/8/1 359/1/1 360/18/1
f 361/31/1 362/32/1 363/26/1 364/25/1
f 365/32/1 366/33/1 367/27/1 368/26/1
f 369/33/1 370/34/1 371/28/1 372/27/1
f 373/25/1 374/26/1 375/10/1 376/9/1
f 377/26/1 378/27/1 379/13/1 380/10/1
f 381/27/1 382/28/1 383/15/1 384/13/1
f 385/37/1 386/38/1 387/32/1 388/31/1
f 389/38/1 390/39/1 391/33/1 392/32/1
f 393/39/1 394/40/1 395/34/1 396/33/1
f 397/37/1 398/38/1 399/32/1 400/31/1
f 401/38/1 402/39/1 403/33/1 404/32/1
f 405/39/1 406/40/1 407/34/1 408/33/1
f 409/5/1 410/6/1 411/7/1 412/8/1
f 413/31/1 414/32/1 415/26/1 416/25/1
f 417/32/1 418/33/1 419/27/1 420/26/1
f 421/33/1 422/34/1 423/28/1 424/27/1
f 425/37/1 426/38/1 427/32/1 428/31/1
f 429/38/1 430/39/1 431/33/1 432/32/1
f 433/39/1 434/40/1 435/34/1 436/33/1

